<svg width="567.0111450195312px" height="122px" xmlns="http://www.w3.org/2000/svg" viewBox="-33.505572509765614 14 567.0111450195312 122" style="background: rgb(5, 17, 3); --darkreader-inline-bgimage: initial; --darkreader-inline-bgcolor:#040e02;" data-darkreader-inline-bgimage="" data-darkreader-inline-bgcolor="" preserveAspectRatio="xMidYMid"><defs><linearGradient id="editing-glowing-gradient" x1="0.8146601955249185" x2="0.18533980447508147" y1="0.8885729807284856" y2="0.11142701927151444"><stop offset="0" stop-color="#67ff43" data-darkreader-inline-stopcolor="" style="--darkreader-inline-stopcolor:#40a400;"></stop><stop offset="1" stop-color="#90ffff" data-darkreader-inline-stopcolor="" style="--darkreader-inline-stopcolor:#007676;"></stop></linearGradient><filter id="editing-glowing" x="-100%" y="-100%" width="300%" height="300%"><feGaussianBlur in="SourceGraphic" result="blur" stdDeviation="10"></feGaussianBlur><feMerge><feMergeNode in="blur"></feMergeNode><feMergeNode in="SourceGraphic"></feMergeNode></feMerge></filter></defs><g filter="url(#editing-glowing)"><g transform="translate(49.009098529815674, 104.47000122070312)"><path d="M21.25-33.92L21.25-33.92L21.25-33.92Q23.55-33.92 25.34-33.41L25.34-33.41L25.34-33.41Q25.41-33.66 25.54-34.37L25.54-34.37L25.86-36.35L25.86-36.35Q26.11-37.63 26.50-39.74L26.50-39.74L27.52-44.80L40.26-46.08L33.15-8.96L33.15-8.96Q33.09-8.58 33.09-7.94L33.09-7.94L33.09-6.91L33.09-6.91Q33.09-5.50 33.79-4.45L33.79-4.45L33.79-4.45Q34.50-3.39 35.65-3.39L35.65-3.39L35.65-3.39Q34.37-0.38 30.46 0.90L30.46 0.90L30.46 0.90Q29.12 1.28 27.23 1.28L27.23 1.28L27.23 1.28Q25.34 1.28 23.62 0.29L23.62 0.29L23.62 0.29Q21.89-0.70 21.38-2.37L21.38-2.37L21.38-2.37Q20.35-0.70 18.30 0.29L18.30 0.29L18.30 0.29Q16.26 1.28 13.28 1.28L13.28 1.28L13.28 1.28Q10.30 1.28 7.84 0.51L7.84 0.51L7.84 0.51Q5.38-0.26 3.84-1.92L3.84-1.92L3.84-1.92Q1.02-5.18 1.02-12.61L1.02-12.61L1.02-12.61Q1.02-22.21 6.66-28.03L6.66-28.03L6.66-28.03Q12.29-33.92 21.25-33.92ZM20.80-30.08L20.80-30.08L20.80-30.08Q18.43-30.08 17.15-27.52L17.15-27.52L17.15-27.52Q15.87-24.96 14.56-18.62L14.56-18.62L14.56-18.62Q13.25-12.29 13.25-6.59L13.25-6.59L13.25-6.59Q13.25-2.69 15.55-2.69L15.55-2.69L15.55-2.69Q17.60-2.69 19.04-4.74L19.04-4.74L19.04-4.74Q20.48-6.78 21.06-10.18L21.06-10.18L24.51-28.93L24.51-28.93Q23.17-30.08 20.80-30.08ZM55.04 1.28L55.04 1.28L55.04 1.28Q40.96 1.28 40.96-11.97L40.96-11.97L40.96-11.97Q40.96-21.38 46.14-27.46L46.14-27.46L46.14-27.46Q51.65-33.92 61.18-33.92L61.18-33.92L61.18-33.92Q68.10-33.92 71.62-30.72L71.62-30.72L71.62-30.72Q75.14-27.52 75.14-20.80L75.14-20.80L75.14-20.80Q75.14-10.56 69.63-4.61L69.63-4.61L69.63-4.61Q64.26 1.28 55.04 1.28ZM56.70-26.56L56.70-26.56L56.70-26.56Q55.94-24.83 55.33-22.24L55.33-22.24L55.33-22.24Q54.72-19.65 53.95-15.55L53.95-15.55L53.95-15.55Q53.18-11.46 53.18-6.40L53.18-6.40L53.18-6.40Q53.18-4.74 53.73-3.65L53.73-3.65L53.73-3.65Q54.27-2.56 55.74-2.56L55.74-2.56L55.74-2.56Q57.22-2.56 58.14-3.26L58.14-3.26L58.14-3.26Q59.07-3.97 59.78-5.63L59.78-5.63L59.78-5.63Q61.06-8.58 62.08-14.05L62.08-14.05L62.08-14.05Q63.10-19.52 63.20-21.89L63.20-21.89L63.20-21.89Q63.30-24.26 63.30-26.02L63.30-26.02L63.30-26.02Q63.30-27.78 62.78-28.93L62.78-28.93L62.78-28.93Q62.27-30.08 60.83-30.08L60.83-30.08L60.83-30.08Q59.39-30.08 58.43-29.18L58.43-29.18L58.43-29.18Q57.47-28.29 56.70-26.56ZM126.66-10.69L126.66-10.69Q122.43-4.86 118.37-1.79L118.37-1.79L118.37-1.79Q114.30 1.28 110.11 1.28L110.11 1.28L110.11 1.28Q105.92 1.28 104.45 0.45L104.45 0.45L104.45-13.63L104.45-13.63Q100.80-3.90 94.27-0.13L94.27-0.13L94.27-0.13Q91.90 1.28 89.66 1.28L89.66 1.28L89.66 1.28Q85.38 1.28 83.52 0.45L83.52 0.45L83.52 0.45Q83.07-14.21 82.69-18.27L82.69-18.27L82.69-18.27Q82.30-22.34 81.98-24.83L81.98-24.83L81.98-24.83Q81.34-29.82 79.17-31.87L79.17-31.87L79.17-31.87Q81.92-33.92 85.76-33.92L85.76-33.92L85.76-33.92Q93.18-33.92 94.21-24.70L94.21-24.70L94.21-24.70Q94.46-22.53 94.46-20.22L94.46-20.22L94.46-20.22Q94.46-16.77 93.70-4.74L93.70-4.74L93.70-4.74Q95.23-5.44 96.86-7.97L96.86-7.97L96.86-7.97Q98.50-10.50 99.84-13.95L99.84-13.95L99.84-13.95Q102.85-21.95 102.85-28.86L102.85-28.86L102.85-28.86Q102.85-29.95 102.56-31.10L102.56-31.10L102.56-31.10Q102.27-32.26 101.95-32.58L101.95-32.58L101.95-32.58Q104.19-33.92 107.62-33.92L107.62-33.92L107.62-33.92Q111.04-33.92 112.67-31.58L112.67-31.58L112.67-31.58Q114.30-29.25 114.75-24.96L114.75-24.96L114.75-24.96Q115.26-19.52 115.26-16.26L115.26-16.26L115.26-16.26Q115.26-11.71 114.82-4.99L114.82-4.99L114.82-4.99Q118.02-7.30 120.64-14.85L120.64-14.85L120.64-14.85Q123.26-22.40 123.26-27.78L123.26-27.78L123.26-27.78Q123.26-30.14 122.88-31.55L122.88-31.55L122.88-31.55Q124.99-33.92 128.64-33.92L128.64-33.92L128.64-33.92Q130.88-33.92 132.51-32.70L132.51-32.70L132.51-32.70Q134.14-31.49 134.14-29.22L134.14-29.22L134.14-29.22Q134.14-26.94 133.47-24.51L133.47-24.51L133.47-24.51Q132.80-22.08 131.71-19.58L131.71-19.58L131.71-19.58Q129.60-14.59 126.66-10.69L126.66-10.69ZM162.94 1.28L162.94 1.28L162.94 1.28Q155.20 1.28 155.20-4.74L155.20-4.74L155.20-4.74Q155.26-6.40 155.78-9.22L155.78-9.22L156.93-15.10L156.93-15.10Q158.66-23.42 158.66-25.28L158.66-25.28L158.66-25.28Q158.66-28.99 156.48-28.99L156.48-28.99L156.48-28.99Q152.83-28.99 150.91-19.46L150.91-19.46L147.14 0L134.27 1.28L140.93-32.70L151.42-33.92L150.40-27.65L150.40-27.65Q153.41-33.92 162.62-33.92L162.62-33.92L162.62-33.92Q167.10-33.92 168.99-32.03L168.99-32.03L168.99-32.03Q170.88-30.14 170.88-25.92L170.88-25.92L170.88-25.92Q170.88-21.95 168.83-12.67L168.83-12.67L168.83-12.67Q167.87-8.51 167.87-6.94L167.87-6.94L167.87-6.94Q167.87-5.38 168.74-4.48L168.74-4.48L168.74-4.48Q169.60-3.58 170.88-3.46L170.88-3.46L170.88-3.46Q170.24-1.28 168.03 0L168.03 0L168.03 0Q165.82 1.28 162.94 1.28ZM191.30-3.52L191.30-3.52L191.30-3.52Q189.31 1.28 182.98 1.28L182.98 1.28L182.98 1.28Q179.78 1.28 177.73-0.96L177.73-0.96L177.73-0.96Q176.06-2.82 176.06-4.93L176.06-4.93L176.06-4.93Q176.06-9.73 178.30-20.22L178.30-20.22L182.98-44.80L195.97-46.08L189.76-13.70L189.76-13.70Q188.67-8.96 188.67-7.30L188.67-7.30L188.67-7.30Q188.67-3.65 191.30-3.52ZM210.69 1.28L210.69 1.28L210.69 1.28Q196.61 1.28 196.61-11.97L196.61-11.97L196.61-11.97Q196.61-21.38 201.79-27.46L201.79-27.46L201.79-27.46Q207.30-33.92 216.83-33.92L216.83-33.92L216.83-33.92Q223.74-33.92 227.26-30.72L227.26-30.72L227.26-30.72Q230.78-27.52 230.78-20.80L230.78-20.80L230.78-20.80Q230.78-10.56 225.28-4.61L225.28-4.61L225.28-4.61Q219.90 1.28 210.69 1.28ZM212.35-26.56L212.35-26.56L212.35-26.56Q211.58-24.83 210.98-22.24L210.98-22.24L210.98-22.24Q210.37-19.65 209.60-15.55L209.60-15.55L209.60-15.55Q208.83-11.46 208.83-6.40L208.83-6.40L208.83-6.40Q208.83-4.74 209.38-3.65L209.38-3.65L209.38-3.65Q209.92-2.56 211.39-2.56L211.39-2.56L211.39-2.56Q212.86-2.56 213.79-3.26L213.79-3.26L213.79-3.26Q214.72-3.97 215.42-5.63L215.42-5.63L215.42-5.63Q216.70-8.58 217.73-14.05L217.73-14.05L217.73-14.05Q218.75-19.52 218.85-21.89L218.85-21.89L218.85-21.89Q218.94-24.26 218.94-26.02L218.94-26.02L218.94-26.02Q218.94-27.78 218.43-28.93L218.43-28.93L218.43-28.93Q217.92-30.08 216.48-30.08L216.48-30.08L216.48-30.08Q215.04-30.08 214.08-29.18L214.08-29.18L214.08-29.18Q213.12-28.29 212.35-26.56ZM237.34-1.92L237.34-1.92L237.34-1.92Q235.84-3.58 235.17-6.21L235.17-6.21L235.17-6.21Q234.50-8.83 234.50-13.12L234.50-13.12L234.50-13.12Q234.50-17.41 235.97-21.31L235.97-21.31L235.97-21.31Q237.44-25.22 240.13-28.03L240.13-28.03L240.13-28.03Q245.63-33.92 254.72-33.92L254.72-33.92L254.72-33.92Q257.98-33.92 260.35-32.83L260.35-32.83L271.30-33.92L266.56-8.96L266.56-8.96Q266.37-8.19 266.37-6.78L266.37-6.78L266.37-6.78Q266.37-5.38 267.23-4.48L267.23-4.48L267.23-4.48Q268.10-3.58 269.38-3.46L269.38-3.46L269.38-3.46Q268.74-1.28 266.40 0L266.40 0L266.40 0Q264.06 1.28 261.44 1.28L261.44 1.28L261.44 1.28Q258.82 1.28 257.06 0.29L257.06 0.29L257.06 0.29Q255.30-0.70 254.78-2.37L254.78-2.37L254.78-2.37Q253.76-0.77 251.58 0.26L251.58 0.26L251.58 0.26Q249.41 1.28 246.50 1.28L246.50 1.28L246.50 1.28Q243.58 1.28 241.22 0.51L241.22 0.51L241.22 0.51Q238.85-0.26 237.34-1.92ZM250.85-27.90L250.85-27.90L250.85-27.90Q250.11-26.75 249.47-24.80L249.47-24.80L249.47-24.80Q248.83-22.85 247.78-17.63L247.78-17.63L247.78-17.63Q246.72-12.42 246.72-8.70L246.72-8.70L246.72-8.70Q246.72-4.99 247.30-3.90L247.30-3.90L247.30-3.90Q247.87-2.82 248.90-2.82L248.90-2.82L248.90-2.82Q250.94-2.82 252.45-4.77L252.45-4.77L252.45-4.77Q253.95-6.72 254.53-10.18L254.53-10.18L257.92-28.93L257.92-28.93Q256.58-30.08 255.01-30.08L255.01-30.08L255.01-30.08Q253.44-30.08 252.51-29.57L252.51-29.57L252.51-29.57Q251.58-29.06 250.85-27.90ZM294.66-33.92L294.66-33.92L294.66-33.92Q296.96-33.92 298.75-33.41L298.75-33.41L298.75-33.41Q298.82-33.66 298.94-34.37L298.94-34.37L299.26-36.35L299.26-36.35Q299.52-37.63 299.90-39.74L299.90-39.74L300.93-44.80L313.66-46.08L306.56-8.96L306.56-8.96Q306.50-8.58 306.50-7.94L306.50-7.94L306.50-6.91L306.50-6.91Q306.50-5.50 307.20-4.45L307.20-4.45L307.20-4.45Q307.90-3.39 309.06-3.39L309.06-3.39L309.06-3.39Q307.78-0.38 303.87 0.90L303.87 0.90L303.87 0.90Q302.53 1.28 300.64 1.28L300.64 1.28L300.64 1.28Q298.75 1.28 297.02 0.29L297.02 0.29L297.02 0.29Q295.30-0.70 294.78-2.37L294.78-2.37L294.78-2.37Q293.76-0.70 291.71 0.29L291.71 0.29L291.71 0.29Q289.66 1.28 286.69 1.28L286.69 1.28L286.69 1.28Q283.71 1.28 281.25 0.51L281.25 0.51L281.25 0.51Q278.78-0.26 277.25-1.92L277.25-1.92L277.25-1.92Q274.43-5.18 274.43-12.61L274.43-12.61L274.43-12.61Q274.43-22.21 280.06-28.03L280.06-28.03L280.06-28.03Q285.70-33.92 294.66-33.92ZM294.21-30.08L294.21-30.08L294.21-30.08Q291.84-30.08 290.56-27.52L290.56-27.52L290.56-27.52Q289.28-24.96 287.97-18.62L287.97-18.62L287.97-18.62Q286.66-12.29 286.66-6.59L286.66-6.59L286.66-6.59Q286.66-2.69 288.96-2.69L288.96-2.69L288.96-2.69Q291.01-2.69 292.45-4.74L292.45-4.74L292.45-4.74Q293.89-6.78 294.46-10.18L294.46-10.18L297.92-28.93L297.92-28.93Q296.58-30.08 294.21-30.08ZM316.86-10.37L316.86-10.37L316.86-10.37Q314.82-11.84 314.82-14.66L314.82-14.66L314.82-14.66Q314.82-16.19 315.58-17.44L315.58-17.44L315.58-17.44Q316.35-18.69 317.89-18.88L317.89-18.88L330.50-18.88L330.50-18.88Q332.61-18.88 333.25-20.16L333.25-20.16L333.25-20.16Q334.27-19.58 334.72-18.37L334.72-18.37L334.72-18.37Q335.17-17.15 335.17-15.87L335.17-15.87L335.17-15.87Q335.17-14.59 334.18-13.34L334.18-13.34L334.18-13.34Q333.18-12.10 331.71-11.97L331.71-11.97L320-11.97L320-11.97Q318.66-11.97 318.02-11.55L318.02-11.55L318.02-11.55Q317.38-11.14 316.86-10.37ZM359.94-7.23L359.94-7.23L359.94-7.23Q356.61-3.78 350.53-3.78L350.53-3.78L350.53-3.78Q342.91-3.78 341.31-9.34L341.31-9.34L341.31-9.34Q340.80-11.01 340.80-12.86L340.80-12.86L340.80-12.86Q340.80-14.72 341.18-16.64L341.18-16.64L344.19-32.64L357.18-33.92L353.66-15.30L353.66-15.30Q353.54-14.46 353.34-13.57L353.34-13.57L353.34-13.57Q353.15-12.67 353.15-11.74L353.15-11.74L353.15-11.74Q353.15-10.82 353.47-10.21L353.47-10.21L353.47-10.21Q353.79-9.60 354.24-9.22L354.24-9.22L354.24-9.22Q355.01-8.70 356.38-8.70L356.38-8.70L356.38-8.70Q357.76-8.70 358.94-10.37L358.94-10.37L358.94-10.37Q360.13-12.03 360.70-14.91L360.70-14.91L364.22-32.64L376.83-33.92L372.03-8.77L372.03-8.77Q369.66 3.52 364.80 8.38L364.80 8.38L364.80 8.38Q362.30 10.88 359.07 11.87L359.07 11.87L359.07 11.87Q355.84 12.86 351.68 12.86L351.68 12.86L351.68 12.86Q344.96 12.86 341.12 10.75L341.12 10.75L341.12 10.75Q337.28 8.64 337.28 5.12L337.28 5.12L337.28 5.12Q337.28 2.50 339.26 0.99L339.26 0.99L339.26 0.99Q341.25-0.51 344.32-0.51L344.32-0.51L344.32-0.51Q347.01-0.51 349.06 0.64L349.06 0.64L349.06 0.64Q350.27 1.34 350.85 2.24L350.85 2.24L350.85 2.24Q349.38 3.52 349.38 5.63L349.38 5.63L349.38 5.63Q349.38 8.45 351.94 8.45L351.94 8.45L351.94 8.45Q356.16 8.45 358.59-1.28L358.59-1.28L358.59-1.28Q359.30-4.16 359.94-7.23ZM380.16-6.40L380.16-6.40L380.16-6.40Q380.16-8.13 381.06-12.48L381.06-12.48L384.45-29.76L380.67-29.76L380.93-31.68L380.93-31.68Q388.61-33.98 396.03-39.62L396.03-39.62L399.10-39.62L397.57-32.64L402.56-32.64L401.98-29.76L397.06-29.76L393.79-12.48L393.79-12.48Q392.96-8.51 392.96-7.17L392.96-7.17L392.96-7.17Q392.96-4.10 395.65-3.46L395.65-3.46L395.65-3.46Q395.01-1.28 392.70 0L392.70 0L392.70 0Q390.40 1.28 387.14 1.28L387.14 1.28L387.14 1.28Q383.87 1.28 382.02-0.77L382.02-0.77L382.02-0.77Q380.16-2.82 380.16-6.40Z" fill="url(#editing-glowing-gradient)"></path></g></g><style>text {
  font-size: 64px;
  font-family: Arial Black;
  dominant-baseline: central;
  text-anchor: middle;
}</style><style class="darkreader darkreader--sync" media="screen"></style></svg>