<svg width="371.12465820312497px" height="122px" xmlns="http://www.w3.org/2000/svg" viewBox="64.43767089843752 14 371.12465820312497 122" style="background: rgb(5, 17, 3); --darkreader-inline-bgimage: initial; --darkreader-inline-bgcolor:#040e02;" data-darkreader-inline-bgimage="" data-darkreader-inline-bgcolor="" preserveAspectRatio="xMidYMid"><defs><linearGradient id="editing-glowing-gradient" x1="0.8146601955249185" x2="0.18533980447508147" y1="0.8885729807284856" y2="0.11142701927151444"><stop offset="0" stop-color="#67ff43" data-darkreader-inline-stopcolor="" style="--darkreader-inline-stopcolor:#40a400;"></stop><stop offset="1" stop-color="#90ffff" data-darkreader-inline-stopcolor="" style="--darkreader-inline-stopcolor:#007676;"></stop></linearGradient><filter id="editing-glowing" x="-100%" y="-100%" width="300%" height="300%"><feGaussianBlur in="SourceGraphic" result="blur" stdDeviation="10"></feGaussianBlur><feMerge><feMergeNode in="blur"></feMergeNode><feMergeNode in="SourceGraphic"></feMergeNode></feMerge></filter></defs><g filter="url(#editing-glowing)"><g transform="translate(120.3340722322464, 104.76000022888184)"><path d="M16.45-3.52L16.45-3.52L16.45-3.52Q14.46 1.28 8.13 1.28L8.13 1.28L8.13 1.28Q4.86 1.28 2.82-0.96L2.82-0.96L2.82-0.96Q1.09-2.94 1.09-4.93L1.09-4.93L1.09-4.93Q1.09-10.11 3.46-20.22L3.46-20.22L5.82-32.64L18.82-33.92L14.91-13.70L14.91-13.70Q13.82-8.96 13.82-7.30L13.82-7.30L13.82-7.30Q13.82-3.65 16.45-3.52ZM6.98-41.54L6.98-41.54L6.98-41.54Q6.98-44.03 9.06-45.38L9.06-45.38L9.06-45.38Q11.14-46.72 14.14-46.72L14.14-46.72L14.14-46.72Q17.15-46.72 18.98-45.38L18.98-45.38L18.98-45.38Q20.80-44.03 20.80-41.54L20.80-41.54L20.80-41.54Q20.80-39.04 18.78-37.76L18.78-37.76L18.78-37.76Q16.77-36.48 13.76-36.48L13.76-36.48L13.76-36.48Q10.75-36.48 8.86-37.76L8.86-37.76L8.86-37.76Q6.98-39.04 6.98-41.54ZM51.71-4.38L51.71-4.38L51.71-4.38Q49.02-1.66 45.34-0.19L45.34-0.19L45.34-0.19Q41.66 1.28 38.02 1.28L38.02 1.28L38.02 1.28Q34.37 1.28 33.09 0.64L33.09 0.64L31.10 11.52L18.11 12.80L26.94-32.64L37.38-33.73L36.54-29.31L36.54-29.31Q39.23-33.86 44.80-33.86L44.80-33.86L44.80-33.86Q51.07-33.86 54.40-29.82L54.40-29.82L54.40-29.82Q57.34-26.18 57.34-20.61L57.34-20.61L57.34-20.61Q57.34-15.04 55.87-11.07L55.87-11.07L55.87-11.07Q54.40-7.10 51.71-4.38ZM37.25-22.34L33.86-3.58L33.86-3.58Q35.20-2.43 36.86-2.43L36.86-2.43L36.86-2.43Q38.53-2.43 39.49-3.07L39.49-3.07L39.49-3.07Q40.45-3.71 41.15-4.99L41.15-4.99L41.15-4.99Q43.07-8.45 44.61-18.94L44.61-18.94L44.61-18.94Q45.06-22.02 45.06-25.02L45.06-25.02L45.06-25.02Q45.06-28.03 44.38-28.99L44.38-28.99L44.38-28.99Q43.71-29.95 42.43-29.95L42.43-29.95L42.43-29.95Q38.53-29.95 37.25-22.34L37.25-22.34ZM86.14-37.12L86.14-37.12L86.14-37.12Q87.04-38.66 87.04-40.32L87.04-40.32L87.04-40.32Q87.04-43.26 85.25-43.26L85.25-43.26L85.25-43.26Q82.50-43.26 81.34-37.63L81.34-37.63L80.38-32.64L86.21-32.64L85.82-29.76L79.81-29.76L74.05 0L61.12 1.28L67.26-29.76L62.72-29.76L63.30-32.64L67.78-32.64L69.12-37.70L69.12-37.70Q70.27-42.37 75.20-44.54L75.20-44.54L75.20-44.54Q78.78-46.08 84.80-46.08L84.80-46.08L84.80-46.08Q90.82-46.08 93.50-44.54L93.50-44.54L93.50-44.54Q96.19-43.01 96.19-40.96L96.19-40.96L96.19-40.96Q96.19-38.91 94.59-37.63L94.59-37.63L94.59-37.63Q92.99-36.35 91.20-36.35L91.20-36.35L91.20-36.35Q87.68-36.35 86.14-37.12ZM106.50-3.52L106.50-3.52L106.50-3.52Q104.51 1.28 98.18 1.28L98.18 1.28L98.18 1.28Q94.91 1.28 92.86-0.96L92.86-0.96L92.86-0.96Q91.14-2.94 91.14-4.93L91.14-4.93L91.14-4.93Q91.14-10.11 93.50-20.22L93.50-20.22L95.87-32.64L108.86-33.92L104.96-13.70L104.96-13.70Q103.87-8.96 103.87-7.30L103.87-7.30L103.87-7.30Q103.87-3.65 106.50-3.52ZM97.02-41.54L97.02-41.54L97.02-41.54Q97.02-44.03 99.10-45.38L99.10-45.38L99.10-45.38Q101.18-46.72 104.19-46.72L104.19-46.72L104.19-46.72Q107.20-46.72 109.02-45.38L109.02-45.38L109.02-45.38Q110.85-44.03 110.85-41.54L110.85-41.54L110.85-41.54Q110.85-39.04 108.83-37.76L108.83-37.76L108.83-37.76Q106.82-36.48 103.81-36.48L103.81-36.48L103.81-36.48Q100.80-36.48 98.91-37.76L98.91-37.76L98.91-37.76Q97.02-39.04 97.02-41.54ZM139.01 1.28L139.01 1.28L139.01 1.28Q131.26 1.28 131.26-4.74L131.26-4.74L131.26-4.74Q131.33-6.40 131.84-9.22L131.84-9.22L132.99-15.10L132.99-15.10Q134.72-23.42 134.72-25.28L134.72-25.28L134.72-25.28Q134.72-28.99 132.54-28.99L132.54-28.99L132.54-28.99Q128.90-28.99 126.98-19.46L126.98-19.46L123.20 0L110.34 1.28L116.99-32.70L127.49-33.92L126.46-27.65L126.46-27.65Q129.47-33.92 138.69-33.92L138.69-33.92L138.69-33.92Q143.17-33.92 145.06-32.03L145.06-32.03L145.06-32.03Q146.94-30.14 146.94-25.92L146.94-25.92L146.94-25.92Q146.94-21.95 144.90-12.67L144.90-12.67L144.90-12.67Q143.94-8.51 143.94-6.94L143.94-6.94L143.94-6.94Q143.94-5.38 144.80-4.48L144.80-4.48L144.80-4.48Q145.66-3.58 146.94-3.46L146.94-3.46L146.94-3.46Q146.30-1.28 144.10 0L144.10 0L144.10 0Q141.89 1.28 139.01 1.28ZM172.22-33.92L172.22-33.92L172.22-33.92Q174.53-33.92 176.32-33.41L176.32-33.41L176.32-33.41Q176.38-33.66 176.51-34.37L176.51-34.37L176.83-36.35L176.83-36.35Q177.09-37.63 177.47-39.74L177.47-39.74L178.50-44.80L191.23-46.08L184.13-8.96L184.13-8.96Q184.06-8.58 184.06-7.94L184.06-7.94L184.06-6.91L184.06-6.91Q184.06-5.50 184.77-4.45L184.77-4.45L184.77-4.45Q185.47-3.39 186.62-3.39L186.62-3.39L186.62-3.39Q185.34-0.38 181.44 0.90L181.44 0.90L181.44 0.90Q180.10 1.28 178.21 1.28L178.21 1.28L178.21 1.28Q176.32 1.28 174.59 0.29L174.59 0.29L174.59 0.29Q172.86-0.70 172.35-2.37L172.35-2.37L172.35-2.37Q171.33-0.70 169.28 0.29L169.28 0.29L169.28 0.29Q167.23 1.28 164.26 1.28L164.26 1.28L164.26 1.28Q161.28 1.28 158.82 0.51L158.82 0.51L158.82 0.51Q156.35-0.26 154.82-1.92L154.82-1.92L154.82-1.92Q152-5.18 152-12.61L152-12.61L152-12.61Q152-22.21 157.63-28.03L157.63-28.03L157.63-28.03Q163.26-33.92 172.22-33.92ZM171.78-30.08L171.78-30.08L171.78-30.08Q169.41-30.08 168.13-27.52L168.13-27.52L168.13-27.52Q166.85-24.96 165.54-18.62L165.54-18.62L165.54-18.62Q164.22-12.29 164.22-6.59L164.22-6.59L164.22-6.59Q164.22-2.69 166.53-2.69L166.53-2.69L166.53-2.69Q168.58-2.69 170.02-4.74L170.02-4.74L170.02-4.74Q171.46-6.78 172.03-10.18L172.03-10.18L175.49-28.93L175.49-28.93Q174.14-30.08 171.78-30.08ZM217.98-10.82L217.98-10.82L217.98-10.82Q219.58-9.73 219.58-7.33L219.58-7.33L219.58-7.33Q219.58-4.93 218.37-3.39L218.37-3.39L218.37-3.39Q217.15-1.86 215.17-0.83L215.17-0.83L215.17-0.83Q211.07 1.28 206.66 1.28L206.66 1.28L206.66 1.28Q202.24 1.28 199.65 0.32L199.65 0.32L199.65 0.32Q197.06-0.64 195.33-2.43L195.33-2.43L195.33-2.43Q191.94-5.82 191.94-12.03L191.94-12.03L191.94-12.03Q191.94-21.70 197.18-27.58L197.18-27.58L197.18-27.58Q202.82-33.92 212.61-33.92L212.61-33.92L212.61-33.92Q218.69-33.92 221.70-31.36L221.70-31.36L221.70-31.36Q223.94-29.44 223.94-26.30L223.94-26.30L223.94-26.30Q223.94-15.04 204.48-15.04L204.48-15.04L204.48-15.04Q204.22-13.38 204.22-11.97L204.22-11.97L204.22-11.97Q204.22-9.02 205.54-7.90L205.54-7.90L205.54-7.90Q206.85-6.78 209.28-6.78L209.28-6.78L209.28-6.78Q211.71-6.78 214.30-7.90L214.30-7.90L214.30-7.90Q216.90-9.02 217.98-10.82ZM204.93-17.79L204.93-17.79L204.93-17.79Q209.47-17.79 212.10-20.61L212.10-20.61L212.10-20.61Q214.72-23.30 214.72-27.58L214.72-27.58L214.72-27.58Q214.72-29.06 214.18-29.86L214.18-29.86L214.18-29.86Q213.63-30.66 212.54-30.66L212.54-30.66L212.54-30.66Q211.46-30.66 210.53-30.24L210.53-30.24L210.53-30.24Q209.60-29.82 208.64-28.42L208.64-28.42L208.64-28.42Q206.27-25.22 204.93-17.79ZM246.14-17.98L246.14-17.98L246.14-17.98Q248.45-22.08 248.45-26.24L248.45-26.24L248.45-26.24Q248.45-28.99 246.46-28.99L246.46-28.99L246.46-28.99Q244.93-28.99 243.33-26.37L243.33-26.37L243.33-26.37Q241.66-23.74 241.15-20.35L241.15-20.35L237.82 0L224.58 1.28L231.10-32.64L241.66-33.92L240.51-27.46L240.51-27.46Q243.65-33.92 250.69-33.92L250.69-33.92L250.69-33.92Q254.40-33.92 256.42-32L256.42-32L256.42-32Q258.43-30.08 258.43-26.14L258.43-26.14L258.43-26.14Q258.43-22.21 255.84-19.71L255.84-19.71L255.84-19.71Q253.25-17.22 248.83-17.22L248.83-17.22L248.83-17.22Q246.91-17.22 246.14-17.98Z" fill="url(#editing-glowing-gradient)"></path></g></g><style>text {
  font-size: 64px;
  font-family: Arial Black;
  dominant-baseline: central;
  text-anchor: middle;
}</style><style class="darkreader darkreader--sync" media="screen"></style></svg>