<svg width="1365.2169921875px" height="122px" xmlns="http://www.w3.org/2000/svg" viewBox="-432.60849609375 14 1365.2169921875 122" style="background: rgb(5, 17, 3); --darkreader-inline-bgimage: initial; --darkreader-inline-bgcolor:#040e02;" data-darkreader-inline-bgimage="" data-darkreader-inline-bgcolor="" preserveAspectRatio="xMidYMid"><defs><linearGradient id="editing-glowing-gradient" x1="0.8146601955249185" x2="0.18533980447508147" y1="0.8885729807284856" y2="0.11142701927151444"><stop offset="0" stop-color="#67ff43" data-darkreader-inline-stopcolor="" style="--darkreader-inline-stopcolor:#40a400;"></stop><stop offset="1" stop-color="#90ffff" data-darkreader-inline-stopcolor="" style="--darkreader-inline-stopcolor:#007676;"></stop></linearGradient><filter id="editing-glowing" x="-100%" y="-100%" width="300%" height="300%"><feGaussianBlur in="SourceGraphic" result="blur" stdDeviation="10"></feGaussianBlur><feMerge><feMergeNode in="blur"></feMergeNode><feMergeNode in="SourceGraphic"></feMergeNode></feMerge></filter></defs><g filter="url(#editing-glowing)"><g transform="translate(-243.82219418883324, 104.79000091552734)"><path d="M13.41 0.64L13.41 0.64L13.41 0.64Q10.37 0 8.80-0.29L8.80-0.29L8.80-0.29Q7.23-0.58 5.41-0.58L5.41-0.58L5.41-0.58Q3.58-0.58 1.79 0.06L1.79 0.06L1.79 0.06Q0.83-0.51 0.22-1.66L0.22-1.66L0.22-1.66Q-0.38-2.82-0.38-4.61L-0.38-4.61L-0.38-4.61Q-0.38-8.38 3.46-11.26L3.46-11.26L19.71-22.98L19.71-22.98Q15.17-24.26 11.04-24.26L11.04-24.26L11.04-24.26Q6.91-24.26 5.44-21.44L5.44-21.44L5.44-21.44Q3.26-24 3.26-28.03L3.26-28.03L3.26-28.03Q3.26-30.72 5.22-32.48L5.22-32.48L5.22-32.48Q7.17-34.24 11.26-34.24L11.26-34.24L11.26-34.24Q13.57-34.24 15.65-33.95L15.65-33.95L15.65-33.95Q17.73-33.66 19.58-33.41L19.58-33.41L23.04-32.90L23.04-32.90Q24.70-32.64 26.40-32.64L26.40-32.64L26.40-32.64Q28.10-32.64 29.38-33.34L29.38-33.34L29.38-33.34Q31.04-31.81 31.04-29.70L31.04-29.70L31.04-29.70Q31.04-26.37 26.94-22.91L26.94-22.91L10.75-10.82L10.75-10.82Q15.74-9.34 18.30-9.34L18.30-9.34L18.30-9.34Q23.68-9.34 25.98-11.90L25.98-11.90L25.98-11.90Q27.78-9.86 27.78-6.30L27.78-6.30L27.78-6.30Q27.78-2.75 25.47-0.74L25.47-0.74L25.47-0.74Q23.17 1.28 19.01 1.28L19.01 1.28L19.01 1.28Q16.45 1.28 13.41 0.64ZM52.48-22.46L52.48-22.46L52.48-22.46Q53.38-24.83 53.38-26.88L53.38-26.88L53.38-26.88Q53.38-30.66 50.30-30.66L50.30-30.66L50.30-30.66Q48.70-30.66 47.39-29.22L47.39-29.22L47.39-29.22Q46.08-27.78 46.08-25.98L46.08-25.98L46.08-25.98Q46.08-24.70 47.10-23.68L47.10-23.68L47.10-23.68Q48.58-22.27 52.35-19.97L52.35-19.97L52.35-19.97Q56.13-17.66 57.57-15.78L57.57-15.78L57.57-15.78Q59.01-13.89 59.01-11.30L59.01-11.30L59.01-11.30Q59.01-8.70 57.76-6.34L57.76-6.34L57.76-6.34Q56.51-3.97 54.27-2.30L54.27-2.30L54.27-2.30Q49.47 1.28 41.79 1.28L41.79 1.28L41.79 1.28Q37.63 1.28 34.43-0.90L34.43-0.90L34.43-0.90Q31.23-3.01 31.23-5.50L31.23-5.50L31.23-5.50Q31.23-8 33.06-9.47L33.06-9.47L33.06-9.47Q34.88-10.94 37.57-10.94L37.57-10.94L37.57-10.94Q40.26-10.94 41.92-9.92L41.92-9.92L41.92-9.92Q41.09-7.81 41.09-6.40L41.09-6.40L41.09-6.40Q41.09-2.18 44.67-2.18L44.67-2.18L44.67-2.18Q46.21-2.18 47.23-3.14L47.23-3.14L47.23-3.14Q48.26-4.10 48.26-5.76L48.26-5.76L48.26-5.76Q48.26-9.02 42.75-12.48L42.75-12.48L42.75-12.48Q38.27-15.42 37.25-16.58L37.25-16.58L37.25-16.58Q35.52-18.62 35.52-21.18L35.52-21.18L35.52-21.18Q35.52-23.74 36.74-26.18L36.74-26.18L36.74-26.18Q37.95-28.61 40.19-30.34L40.19-30.34L40.19-30.34Q44.86-33.92 52.99-33.92L52.99-33.92L52.99-33.92Q57.15-33.92 59.62-32.26L59.62-32.26L59.62-32.26Q62.08-30.59 62.08-27.78L62.08-27.78L62.08-27.78Q62.08-24.96 60.38-23.36L60.38-23.36L60.38-23.36Q58.69-21.76 55.62-21.76L55.62-21.76L55.62-21.76Q53.50-21.76 52.48-22.46ZM96.64-7.10L96.64-7.10L96.64-7.10Q96.64-4.29 99.52-3.46L99.52-3.46L99.52-3.46Q98.82-1.09 96.06 0.19L96.06 0.19L96.06 0.19Q93.76 1.28 91.23 1.28L91.23 1.28L91.23 1.28Q88.70 1.28 87.39 0.61L87.39 0.61L87.39 0.61Q86.08-0.06 85.38-1.15L85.38-1.15L85.38-1.15Q84.22-2.82 84.22-5.95L84.22-5.95L84.22-5.95Q84.22-7.81 85.25-12.93L85.25-12.93L86.14-17.79L86.14-17.79Q87.23-23.36 87.23-25.41L87.23-25.41L87.23-25.41Q87.23-28.99 85.25-28.99L85.25-28.99L85.25-28.99Q82.75-28.99 81.15-25.34L81.15-25.34L81.15-25.34Q80.51-23.94 80.06-21.82L80.06-21.82L75.71 0L62.85 1.28L71.87-44.80L84.74-46.08L84.22-43.52L84.22-43.52Q82.43-33.66 80.90-30.34L80.90-30.34L80.90-30.34Q84.48-33.92 91.07-33.92L91.07-33.92L91.07-33.92Q98.05-33.92 99.33-29.31L99.33-29.31L99.33-29.31Q99.78-27.84 99.78-26.56L99.78-26.56L99.78-26.56Q99.78-25.28 99.68-24.29L99.68-24.29L99.68-24.29Q99.58-23.30 99.26-21.50L99.26-21.50L98.43-16.90L96.96-9.66L96.96-9.66Q96.64-8.19 96.64-7.10ZM104.77 7.23L104.77 7.23L104.77 7.23Q104.77 5.12 106.11 3.81L106.11 3.81L106.11 3.81Q107.46 2.50 109.50 2.50L109.50 2.50L136.45 2.50L136.45 2.50Q136.77 3.58 136.77 4.42L136.77 4.42L136.77 4.42Q136.77 6.34 135.46 7.68L135.46 7.68L135.46 7.68Q134.14 9.02 131.46 9.02L131.46 9.02L105.02 9.02L105.02 9.02Q104.77 8.19 104.77 7.23ZM163.97-3.52L163.97-3.52L163.97-3.52Q161.98 1.28 155.65 1.28L155.65 1.28L155.65 1.28Q152.38 1.28 150.34-0.96L150.34-0.96L150.34-0.96Q148.61-2.94 148.61-4.93L148.61-4.93L148.61-4.93Q148.61-10.11 150.98-20.22L150.98-20.22L153.34-32.64L166.34-33.92L162.43-13.70L162.43-13.70Q161.34-8.96 161.34-7.30L161.34-7.30L161.34-7.30Q161.34-3.65 163.97-3.52ZM154.50-41.54L154.50-41.54L154.50-41.54Q154.50-44.03 156.58-45.38L156.58-45.38L156.58-45.38Q158.66-46.72 161.66-46.72L161.66-46.72L161.66-46.72Q164.67-46.72 166.50-45.38L166.50-45.38L166.50-45.38Q168.32-44.03 168.32-41.54L168.32-41.54L168.32-41.54Q168.32-39.04 166.30-37.76L166.30-37.76L166.30-37.76Q164.29-36.48 161.28-36.48L161.28-36.48L161.28-36.48Q158.27-36.48 156.38-37.76L156.38-37.76L156.38-37.76Q154.50-39.04 154.50-41.54ZM196.48 1.28L196.48 1.28L196.48 1.28Q188.74 1.28 188.74-4.74L188.74-4.74L188.74-4.74Q188.80-6.40 189.31-9.22L189.31-9.22L190.46-15.10L190.46-15.10Q192.19-23.42 192.19-25.28L192.19-25.28L192.19-25.28Q192.19-28.99 190.02-28.99L190.02-28.99L190.02-28.99Q186.37-28.99 184.45-19.46L184.45-19.46L180.67 0L167.81 1.28L174.46-32.70L184.96-33.92L183.94-27.65L183.94-27.65Q186.94-33.92 196.16-33.92L196.16-33.92L196.16-33.92Q200.64-33.92 202.53-32.03L202.53-32.03L202.53-32.03Q204.42-30.14 204.42-25.92L204.42-25.92L204.42-25.92Q204.42-21.95 202.37-12.67L202.37-12.67L202.37-12.67Q201.41-8.51 201.41-6.94L201.41-6.94L201.41-6.94Q201.41-5.38 202.27-4.48L202.27-4.48L202.27-4.48Q203.14-3.58 204.42-3.46L204.42-3.46L204.42-3.46Q203.78-1.28 201.57 0L201.57 0L201.57 0Q199.36 1.28 196.48 1.28ZM228.67-22.46L228.67-22.46L228.67-22.46Q229.57-24.83 229.57-26.88L229.57-26.88L229.57-26.88Q229.57-30.66 226.50-30.66L226.50-30.66L226.50-30.66Q224.90-30.66 223.58-29.22L223.58-29.22L223.58-29.22Q222.27-27.78 222.27-25.98L222.27-25.98L222.27-25.98Q222.27-24.70 223.30-23.68L223.30-23.68L223.30-23.68Q224.77-22.27 228.54-19.97L228.54-19.97L228.54-19.97Q232.32-17.66 233.76-15.78L233.76-15.78L233.76-15.78Q235.20-13.89 235.20-11.30L235.20-11.30L235.20-11.30Q235.20-8.70 233.95-6.34L233.95-6.34L233.95-6.34Q232.70-3.97 230.46-2.30L230.46-2.30L230.46-2.30Q225.66 1.28 217.98 1.28L217.98 1.28L217.98 1.28Q213.82 1.28 210.62-0.90L210.62-0.90L210.62-0.90Q207.42-3.01 207.42-5.50L207.42-5.50L207.42-5.50Q207.42-8 209.25-9.47L209.25-9.47L209.25-9.47Q211.07-10.94 213.76-10.94L213.76-10.94L213.76-10.94Q216.45-10.94 218.11-9.92L218.11-9.92L218.11-9.92Q217.28-7.81 217.28-6.40L217.28-6.40L217.28-6.40Q217.28-2.18 220.86-2.18L220.86-2.18L220.86-2.18Q222.40-2.18 223.42-3.14L223.42-3.14L223.42-3.14Q224.45-4.10 224.45-5.76L224.45-5.76L224.45-5.76Q224.45-9.02 218.94-12.48L218.94-12.48L218.94-12.48Q214.46-15.42 213.44-16.58L213.44-16.58L213.44-16.58Q211.71-18.62 211.71-21.18L211.71-21.18L211.71-21.18Q211.71-23.74 212.93-26.18L212.93-26.18L212.93-26.18Q214.14-28.61 216.38-30.34L216.38-30.34L216.38-30.34Q221.06-33.92 229.18-33.92L229.18-33.92L229.18-33.92Q233.34-33.92 235.81-32.26L235.81-32.26L235.81-32.26Q238.27-30.59 238.27-27.78L238.27-27.78L238.27-27.78Q238.27-24.96 236.58-23.36L236.58-23.36L236.58-23.36Q234.88-21.76 231.81-21.76L231.81-21.76L231.81-21.76Q229.70-21.76 228.67-22.46ZM241.66-6.40L241.66-6.40L241.66-6.40Q241.66-8.13 242.56-12.48L242.56-12.48L245.95-29.76L242.18-29.76L242.43-31.68L242.43-31.68Q250.11-33.98 257.54-39.62L257.54-39.62L260.61-39.62L259.07-32.64L264.06-32.64L263.49-29.76L258.56-29.76L255.30-12.48L255.30-12.48Q254.46-8.51 254.46-7.17L254.46-7.17L254.46-7.17Q254.46-4.10 257.15-3.46L257.15-3.46L257.15-3.46Q256.51-1.28 254.21 0L254.21 0L254.21 0Q251.90 1.28 248.64 1.28L248.64 1.28L248.64 1.28Q245.38 1.28 243.52-0.77L243.52-0.77L243.52-0.77Q241.66-2.82 241.66-6.40ZM266.27-1.92L266.27-1.92L266.27-1.92Q264.77-3.58 264.10-6.21L264.10-6.21L264.10-6.21Q263.42-8.83 263.42-13.12L263.42-13.12L263.42-13.12Q263.42-17.41 264.90-21.31L264.90-21.31L264.90-21.31Q266.37-25.22 269.06-28.03L269.06-28.03L269.06-28.03Q274.56-33.92 283.65-33.92L283.65-33.92L283.65-33.92Q286.91-33.92 289.28-32.83L289.28-32.83L300.22-33.92L295.49-8.96L295.49-8.96Q295.30-8.19 295.30-6.78L295.30-6.78L295.30-6.78Q295.30-5.38 296.16-4.48L296.16-4.48L296.16-4.48Q297.02-3.58 298.30-3.46L298.30-3.46L298.30-3.46Q297.66-1.28 295.33 0L295.33 0L295.33 0Q292.99 1.28 290.37 1.28L290.37 1.28L290.37 1.28Q287.74 1.28 285.98 0.29L285.98 0.29L285.98 0.29Q284.22-0.70 283.71-2.37L283.71-2.37L283.71-2.37Q282.69-0.77 280.51 0.26L280.51 0.26L280.51 0.26Q278.34 1.28 275.42 1.28L275.42 1.28L275.42 1.28Q272.51 1.28 270.14 0.51L270.14 0.51L270.14 0.51Q267.78-0.26 266.27-1.92ZM279.78-27.90L279.78-27.90L279.78-27.90Q279.04-26.75 278.40-24.80L278.40-24.80L278.40-24.80Q277.76-22.85 276.70-17.63L276.70-17.63L276.70-17.63Q275.65-12.42 275.65-8.70L275.65-8.70L275.65-8.70Q275.65-4.99 276.22-3.90L276.22-3.90L276.22-3.90Q276.80-2.82 277.82-2.82L277.82-2.82L277.82-2.82Q279.87-2.82 281.38-4.77L281.38-4.77L281.38-4.77Q282.88-6.72 283.46-10.18L283.46-10.18L286.85-28.93L286.85-28.93Q285.50-30.08 283.94-30.08L283.94-30.08L283.94-30.08Q282.37-30.08 281.44-29.57L281.44-29.57L281.44-29.57Q280.51-29.06 279.78-27.90ZM318.98-3.52L318.98-3.52L318.98-3.52Q316.99 1.28 310.66 1.28L310.66 1.28L310.66 1.28Q307.46 1.28 305.41-0.96L305.41-0.96L305.41-0.96Q303.74-2.82 303.74-4.93L303.74-4.93L303.74-4.93Q303.74-9.73 305.98-20.22L305.98-20.22L310.66-44.80L323.65-46.08L317.44-13.70L317.44-13.70Q316.35-8.96 316.35-7.30L316.35-7.30L316.35-7.30Q316.35-3.65 318.98-3.52ZM339.71-3.52L339.71-3.52L339.71-3.52Q337.73 1.28 331.39 1.28L331.39 1.28L331.39 1.28Q328.19 1.28 326.14-0.96L326.14-0.96L326.14-0.96Q324.48-2.82 324.48-4.93L324.48-4.93L324.48-4.93Q324.48-9.73 326.72-20.22L326.72-20.22L331.39-44.80L344.38-46.08L338.18-13.70L338.18-13.70Q337.09-8.96 337.09-7.30L337.09-7.30L337.09-7.30Q337.09-3.65 339.71-3.52ZM347.52-10.37L347.52-10.37L347.52-10.37Q345.47-11.84 345.47-14.66L345.47-14.66L345.47-14.66Q345.47-16.19 346.24-17.44L346.24-17.44L346.24-17.44Q347.01-18.69 348.54-18.88L348.54-18.88L361.15-18.88L361.15-18.88Q363.26-18.88 363.90-20.16L363.90-20.16L363.90-20.16Q364.93-19.58 365.38-18.37L365.38-18.37L365.38-18.37Q365.82-17.15 365.82-15.87L365.82-15.87L365.82-15.87Q365.82-14.59 364.83-13.34L364.83-13.34L364.83-13.34Q363.84-12.10 362.37-11.97L362.37-11.97L350.66-11.97L350.66-11.97Q349.31-11.97 348.67-11.55L348.67-11.55L348.67-11.55Q348.03-11.14 347.52-10.37ZM390.40-33.92L390.40-33.92L390.40-33.92Q392.70-33.92 394.50-33.41L394.50-33.41L394.50-33.41Q394.56-33.66 394.69-34.37L394.69-34.37L395.01-36.35L395.01-36.35Q395.26-37.63 395.65-39.74L395.65-39.74L396.67-44.80L409.41-46.08L402.30-8.96L402.30-8.96Q402.24-8.58 402.24-7.94L402.24-7.94L402.24-6.91L402.24-6.91Q402.24-5.50 402.94-4.45L402.94-4.45L402.94-4.45Q403.65-3.39 404.80-3.39L404.80-3.39L404.80-3.39Q403.52-0.38 399.62 0.90L399.62 0.90L399.62 0.90Q398.27 1.28 396.38 1.28L396.38 1.28L396.38 1.28Q394.50 1.28 392.77 0.29L392.77 0.29L392.77 0.29Q391.04-0.70 390.53-2.37L390.53-2.37L390.53-2.37Q389.50-0.70 387.46 0.29L387.46 0.29L387.46 0.29Q385.41 1.28 382.43 1.28L382.43 1.28L382.43 1.28Q379.46 1.28 376.99 0.51L376.99 0.51L376.99 0.51Q374.53-0.26 372.99-1.92L372.99-1.92L372.99-1.92Q370.18-5.18 370.18-12.61L370.18-12.61L370.18-12.61Q370.18-22.21 375.81-28.03L375.81-28.03L375.81-28.03Q381.44-33.92 390.40-33.92ZM389.95-30.08L389.95-30.08L389.95-30.08Q387.58-30.08 386.30-27.52L386.30-27.52L386.30-27.52Q385.02-24.96 383.71-18.62L383.71-18.62L383.71-18.62Q382.40-12.29 382.40-6.59L382.40-6.59L382.40-6.59Q382.40-2.69 384.70-2.69L384.70-2.69L384.70-2.69Q386.75-2.69 388.19-4.74L388.19-4.74L388.19-4.74Q389.63-6.78 390.21-10.18L390.21-10.18L393.66-28.93L393.66-28.93Q392.32-30.08 389.95-30.08ZM424.19 1.28L424.19 1.28L424.19 1.28Q410.11 1.28 410.11-11.97L410.11-11.97L410.11-11.97Q410.11-21.38 415.30-27.46L415.30-27.46L415.30-27.46Q420.80-33.92 430.34-33.92L430.34-33.92L430.34-33.92Q437.25-33.92 440.77-30.72L440.77-30.72L440.77-30.72Q444.29-27.52 444.29-20.80L444.29-20.80L444.29-20.80Q444.29-10.56 438.78-4.61L438.78-4.61L438.78-4.61Q433.41 1.28 424.19 1.28ZM425.86-26.56L425.86-26.56L425.86-26.56Q425.09-24.83 424.48-22.24L424.48-22.24L424.48-22.24Q423.87-19.65 423.10-15.55L423.10-15.55L423.10-15.55Q422.34-11.46 422.34-6.40L422.34-6.40L422.34-6.40Q422.34-4.74 422.88-3.65L422.88-3.65L422.88-3.65Q423.42-2.56 424.90-2.56L424.90-2.56L424.90-2.56Q426.37-2.56 427.30-3.26L427.30-3.26L427.30-3.26Q428.22-3.97 428.93-5.63L428.93-5.63L428.93-5.63Q430.21-8.58 431.23-14.05L431.23-14.05L431.23-14.05Q432.26-19.52 432.35-21.89L432.35-21.89L432.35-21.89Q432.45-24.26 432.45-26.02L432.45-26.02L432.45-26.02Q432.45-27.78 431.94-28.93L431.94-28.93L431.94-28.93Q431.42-30.08 429.98-30.08L429.98-30.08L429.98-30.08Q428.54-30.08 427.58-29.18L427.58-29.18L427.58-29.18Q426.62-28.29 425.86-26.56ZM479.49-26.62L479.49-26.62L479.49-26.62Q479.49-23.94 477.25-22.27L477.25-22.27L477.25-22.27Q475.01-20.61 471.36-20.61L471.36-20.61L471.36-20.61Q469.82-20.61 468.93-21.06L468.93-21.06L468.93-21.06Q469.63-22.72 469.86-24.80L469.86-24.80L469.86-24.80Q470.08-26.88 470.08-27.46L470.08-27.46L470.08-27.46Q470.08-30.14 468.22-30.14L468.22-30.14L468.22-30.14Q466.94-30.14 465.50-28.54L465.50-28.54L465.50-28.54Q464.06-26.94 462.85-24.45L462.85-24.45L462.85-24.45Q460.16-18.69 460.16-12.86L460.16-12.86L460.16-12.86Q460.16-9.66 461.38-8.22L461.38-8.22L461.38-8.22Q462.59-6.78 465.28-6.78L465.28-6.78L465.28-6.78Q468.99-6.78 471.94-9.86L471.94-9.86L471.94-9.86Q472.77-10.82 473.22-11.90L473.22-11.90L473.22-11.90Q475.65-10.62 475.65-7.10L475.65-7.10L475.65-7.10Q475.65-3.52 471.68-1.15L471.68-1.15L471.68-1.15Q467.58 1.28 461.06 1.28L461.06 1.28L461.06 1.28Q448.06 1.28 448.06-12.48L448.06-12.48L448.06-12.48Q448.06-22.53 453.76-28.29L453.76-28.29L453.76-28.29Q459.26-33.92 469.38-33.92L469.38-33.92L469.38-33.92Q479.49-33.92 479.49-26.62ZM497.73-30.34L497.73-30.34L497.73-30.34Q501.18-33.92 508.48-33.92L508.48-33.92L508.48-33.92Q512.51-33.92 514.72-31.78L514.72-31.78L514.72-31.78Q516.93-29.63 516.93-25.70L516.93-25.70L516.93-25.70Q516.93-21.76 514.72-18.98L514.72-18.98L514.72-18.98Q512.51-16.19 508.42-15.04L508.42-15.04L508.42-15.04Q508.74-13.76 509.18-12.42L509.18-12.42L510.08-9.86L510.08-9.86Q511.30-6.59 512.26-5.44L512.26-5.44L512.26-5.44Q513.22-4.29 514.50-3.90L514.50-3.90L514.50-3.90Q513.79-1.28 511.23 0.13L511.23 0.13L511.23 0.13Q509.18 1.28 506.37 1.28L506.37 1.28L506.37 1.28Q498.11 1.28 497.02-11.46L497.02-11.46L497.02-11.46Q496.83-13.25 496.83-15.04L496.83-15.04L496.83-15.04Q500.03-15.94 502.27-18.94L502.27-18.94L502.27-18.94Q504.51-21.95 504.51-25.47L504.51-25.47L504.51-25.47Q504.51-28.99 502.02-28.99L502.02-28.99L502.02-28.99Q500.22-28.99 498.82-27.01L498.82-27.01L498.82-27.01Q497.41-25.02 496.77-21.63L496.77-21.63L492.54 0L479.62 1.28L488.58-44.80L501.44-46.08L499.97-38.46L499.97-38.46Q499.01-33.09 497.73-30.34ZM545.79-10.82L545.79-10.82L545.79-10.82Q547.39-9.73 547.39-7.33L547.39-7.33L547.39-7.33Q547.39-4.93 546.18-3.39L546.18-3.39L546.18-3.39Q544.96-1.86 542.98-0.83L542.98-0.83L542.98-0.83Q538.88 1.28 534.46 1.28L534.46 1.28L534.46 1.28Q530.05 1.28 527.46 0.32L527.46 0.32L527.46 0.32Q524.86-0.64 523.14-2.43L523.14-2.43L523.14-2.43Q519.74-5.82 519.74-12.03L519.74-12.03L519.74-12.03Q519.74-21.70 524.99-27.58L524.99-27.58L524.99-27.58Q530.62-33.92 540.42-33.92L540.42-33.92L540.42-33.92Q546.50-33.92 549.50-31.36L549.50-31.36L549.50-31.36Q551.74-29.44 551.74-26.30L551.74-26.30L551.74-26.30Q551.74-15.04 532.29-15.04L532.29-15.04L532.29-15.04Q532.03-13.38 532.03-11.97L532.03-11.97L532.03-11.97Q532.03-9.02 533.34-7.90L533.34-7.90L533.34-7.90Q534.66-6.78 537.09-6.78L537.09-6.78L537.09-6.78Q539.52-6.78 542.11-7.90L542.11-7.90L542.11-7.90Q544.70-9.02 545.79-10.82ZM532.74-17.79L532.74-17.79L532.74-17.79Q537.28-17.79 539.90-20.61L539.90-20.61L539.90-20.61Q542.53-23.30 542.53-27.58L542.53-27.58L542.53-27.58Q542.53-29.06 541.98-29.86L541.98-29.86L541.98-29.86Q541.44-30.66 540.35-30.66L540.35-30.66L540.35-30.66Q539.26-30.66 538.34-30.24L538.34-30.24L538.34-30.24Q537.41-29.82 536.45-28.42L536.45-28.42L536.45-28.42Q534.08-25.22 532.74-17.79ZM573.95-17.98L573.95-17.98L573.95-17.98Q576.26-22.08 576.26-26.24L576.26-26.24L576.26-26.24Q576.26-28.99 574.27-28.99L574.27-28.99L574.27-28.99Q572.74-28.99 571.14-26.37L571.14-26.37L571.14-26.37Q569.47-23.74 568.96-20.35L568.96-20.35L565.63 0L552.38 1.28L558.91-32.64L569.47-33.92L568.32-27.46L568.32-27.46Q571.46-33.92 578.50-33.92L578.50-33.92L578.50-33.92Q582.21-33.92 584.22-32L584.22-32L584.22-32Q586.24-30.08 586.24-26.14L586.24-26.14L586.24-26.14Q586.24-22.21 583.65-19.71L583.65-19.71L583.65-19.71Q581.06-17.22 576.64-17.22L576.64-17.22L576.64-17.22Q574.72-17.22 573.95-17.98ZM607.42-33.92L607.42-33.92L607.42-33.92Q609.73-33.92 611.52-33.41L611.52-33.41L611.52-33.41Q611.58-33.66 611.71-34.37L611.71-34.37L612.03-36.35L612.03-36.35Q612.29-37.63 612.67-39.74L612.67-39.74L613.70-44.80L626.43-46.08L619.33-8.96L619.33-8.96Q619.26-8.58 619.26-7.94L619.26-7.94L619.26-6.91L619.26-6.91Q619.26-5.50 619.97-4.45L619.97-4.45L619.97-4.45Q620.67-3.39 621.82-3.39L621.82-3.39L621.82-3.39Q620.54-0.38 616.64 0.90L616.64 0.90L616.64 0.90Q615.30 1.28 613.41 1.28L613.41 1.28L613.41 1.28Q611.52 1.28 609.79 0.29L609.79 0.29L609.79 0.29Q608.06-0.70 607.55-2.37L607.55-2.37L607.55-2.37Q606.53-0.70 604.48 0.29L604.48 0.29L604.48 0.29Q602.43 1.28 599.46 1.28L599.46 1.28L599.46 1.28Q596.48 1.28 594.02 0.51L594.02 0.51L594.02 0.51Q591.55-0.26 590.02-1.92L590.02-1.92L590.02-1.92Q587.20-5.18 587.20-12.61L587.20-12.61L587.20-12.61Q587.20-22.21 592.83-28.03L592.83-28.03L592.83-28.03Q598.46-33.92 607.42-33.92ZM606.98-30.08L606.98-30.08L606.98-30.08Q604.61-30.08 603.33-27.52L603.33-27.52L603.33-27.52Q602.05-24.96 600.74-18.62L600.74-18.62L600.74-18.62Q599.42-12.29 599.42-6.59L599.42-6.59L599.42-6.59Q599.42-2.69 601.73-2.69L601.73-2.69L601.73-2.69Q603.78-2.69 605.22-4.74L605.22-4.74L605.22-4.74Q606.66-6.78 607.23-10.18L607.23-10.18L610.69-28.93L610.69-28.93Q609.34-30.08 606.98-30.08ZM641.22 1.28L641.22 1.28L641.22 1.28Q627.14 1.28 627.14-11.97L627.14-11.97L627.14-11.97Q627.14-21.38 632.32-27.46L632.32-27.46L632.32-27.46Q637.82-33.92 647.36-33.92L647.36-33.92L647.36-33.92Q654.27-33.92 657.79-30.72L657.79-30.72L657.79-30.72Q661.31-27.52 661.31-20.80L661.31-20.80L661.31-20.80Q661.31-10.56 655.81-4.61L655.81-4.61L655.81-4.61Q650.43 1.28 641.22 1.28ZM642.88-26.56L642.88-26.56L642.88-26.56Q642.11-24.83 641.50-22.24L641.50-22.24L641.50-22.24Q640.90-19.65 640.13-15.55L640.13-15.55L640.13-15.55Q639.36-11.46 639.36-6.40L639.36-6.40L639.36-6.40Q639.36-4.74 639.90-3.65L639.90-3.65L639.90-3.65Q640.45-2.56 641.92-2.56L641.92-2.56L641.92-2.56Q643.39-2.56 644.32-3.26L644.32-3.26L644.32-3.26Q645.25-3.97 645.95-5.63L645.95-5.63L645.95-5.63Q647.23-8.58 648.26-14.05L648.26-14.05L648.26-14.05Q649.28-19.52 649.38-21.89L649.38-21.89L649.38-21.89Q649.47-24.26 649.47-26.02L649.47-26.02L649.47-26.02Q649.47-27.78 648.96-28.93L648.96-28.93L648.96-28.93Q648.45-30.08 647.01-30.08L647.01-30.08L647.01-30.08Q645.57-30.08 644.61-29.18L644.61-29.18L644.61-29.18Q643.65-28.29 642.88-26.56ZM712.83-10.69L712.83-10.69Q708.61-4.86 704.54-1.79L704.54-1.79L704.54-1.79Q700.48 1.28 696.29 1.28L696.29 1.28L696.29 1.28Q692.10 1.28 690.62 0.45L690.62 0.45L690.62-13.63L690.62-13.63Q686.98-3.90 680.45-0.13L680.45-0.13L680.45-0.13Q678.08 1.28 675.84 1.28L675.84 1.28L675.84 1.28Q671.55 1.28 669.70 0.45L669.70 0.45L669.70 0.45Q669.25-14.21 668.86-18.27L668.86-18.27L668.86-18.27Q668.48-22.34 668.16-24.83L668.16-24.83L668.16-24.83Q667.52-29.82 665.34-31.87L665.34-31.87L665.34-31.87Q668.10-33.92 671.94-33.92L671.94-33.92L671.94-33.92Q679.36-33.92 680.38-24.70L680.38-24.70L680.38-24.70Q680.64-22.53 680.64-20.22L680.64-20.22L680.64-20.22Q680.64-16.77 679.87-4.74L679.87-4.74L679.87-4.74Q681.41-5.44 683.04-7.97L683.04-7.97L683.04-7.97Q684.67-10.50 686.02-13.95L686.02-13.95L686.02-13.95Q689.02-21.95 689.02-28.86L689.02-28.86L689.02-28.86Q689.02-29.95 688.74-31.10L688.74-31.10L688.74-31.10Q688.45-32.26 688.13-32.58L688.13-32.58L688.13-32.58Q690.37-33.92 693.79-33.92L693.79-33.92L693.79-33.92Q697.22-33.92 698.85-31.58L698.85-31.58L698.85-31.58Q700.48-29.25 700.93-24.96L700.93-24.96L700.93-24.96Q701.44-19.52 701.44-16.26L701.44-16.26L701.44-16.26Q701.44-11.71 700.99-4.99L700.99-4.99L700.99-4.99Q704.19-7.30 706.82-14.85L706.82-14.85L706.82-14.85Q709.44-22.40 709.44-27.78L709.44-27.78L709.44-27.78Q709.44-30.14 709.06-31.55L709.06-31.55L709.06-31.55Q711.17-33.92 714.82-33.92L714.82-33.92L714.82-33.92Q717.06-33.92 718.69-32.70L718.69-32.70L718.69-32.70Q720.32-31.49 720.32-29.22L720.32-29.22L720.32-29.22Q720.32-26.94 719.65-24.51L719.65-24.51L719.65-24.51Q718.98-22.08 717.89-19.58L717.89-19.58L717.89-19.58Q715.78-14.59 712.83-10.69L712.83-10.69ZM749.12 1.28L749.12 1.28L749.12 1.28Q741.38 1.28 741.38-4.74L741.38-4.74L741.38-4.74Q741.44-6.40 741.95-9.22L741.95-9.22L743.10-15.10L743.10-15.10Q744.83-23.42 744.83-25.28L744.83-25.28L744.83-25.28Q744.83-28.99 742.66-28.99L742.66-28.99L742.66-28.99Q739.01-28.99 737.09-19.46L737.09-19.46L733.31 0L720.45 1.28L727.10-32.70L737.60-33.92L736.58-27.65L736.58-27.65Q739.58-33.92 748.80-33.92L748.80-33.92L748.80-33.92Q753.28-33.92 755.17-32.03L755.17-32.03L755.17-32.03Q757.06-30.14 757.06-25.92L757.06-25.92L757.06-25.92Q757.06-21.95 755.01-12.67L755.01-12.67L755.01-12.67Q754.05-8.51 754.05-6.94L754.05-6.94L754.05-6.94Q754.05-5.38 754.91-4.48L754.91-4.48L754.91-4.48Q755.78-3.58 757.06-3.46L757.06-3.46L757.06-3.46Q756.42-1.28 754.21 0L754.21 0L754.21 0Q752 1.28 749.12 1.28ZM777.47-3.52L777.47-3.52L777.47-3.52Q775.49 1.28 769.15 1.28L769.15 1.28L769.15 1.28Q765.95 1.28 763.90-0.96L763.90-0.96L763.90-0.96Q762.24-2.82 762.24-4.93L762.24-4.93L762.24-4.93Q762.24-9.73 764.48-20.22L764.48-20.22L769.15-44.80L782.14-46.08L775.94-13.70L775.94-13.70Q774.85-8.96 774.85-7.30L774.85-7.30L774.85-7.30Q774.85-3.65 777.47-3.52ZM796.86 1.28L796.86 1.28L796.86 1.28Q782.78 1.28 782.78-11.97L782.78-11.97L782.78-11.97Q782.78-21.38 787.97-27.46L787.97-27.46L787.97-27.46Q793.47-33.92 803.01-33.92L803.01-33.92L803.01-33.92Q809.92-33.92 813.44-30.72L813.44-30.72L813.44-30.72Q816.96-27.52 816.96-20.80L816.96-20.80L816.96-20.80Q816.96-10.56 811.46-4.61L811.46-4.61L811.46-4.61Q806.08 1.28 796.86 1.28ZM798.53-26.56L798.53-26.56L798.53-26.56Q797.76-24.83 797.15-22.24L797.15-22.24L797.15-22.24Q796.54-19.65 795.78-15.55L795.78-15.55L795.78-15.55Q795.01-11.46 795.01-6.40L795.01-6.40L795.01-6.40Q795.01-4.74 795.55-3.65L795.55-3.65L795.55-3.65Q796.10-2.56 797.57-2.56L797.57-2.56L797.57-2.56Q799.04-2.56 799.97-3.26L799.97-3.26L799.97-3.26Q800.90-3.97 801.60-5.63L801.60-5.63L801.60-5.63Q802.88-8.58 803.90-14.05L803.90-14.05L803.90-14.05Q804.93-19.52 805.02-21.89L805.02-21.89L805.02-21.89Q805.12-24.26 805.12-26.02L805.12-26.02L805.12-26.02Q805.12-27.78 804.61-28.93L804.61-28.93L804.61-28.93Q804.10-30.08 802.66-30.08L802.66-30.08L802.66-30.08Q801.22-30.08 800.26-29.18L800.26-29.18L800.26-29.18Q799.30-28.29 798.53-26.56ZM823.52-1.92L823.52-1.92L823.52-1.92Q822.02-3.58 821.34-6.21L821.34-6.21L821.34-6.21Q820.67-8.83 820.67-13.12L820.67-13.12L820.67-13.12Q820.67-17.41 822.14-21.31L822.14-21.31L822.14-21.31Q823.62-25.22 826.30-28.03L826.30-28.03L826.30-28.03Q831.81-33.92 840.90-33.92L840.90-33.92L840.90-33.92Q844.16-33.92 846.53-32.83L846.53-32.83L857.47-33.92L852.74-8.96L852.74-8.96Q852.54-8.19 852.54-6.78L852.54-6.78L852.54-6.78Q852.54-5.38 853.41-4.48L853.41-4.48L853.41-4.48Q854.27-3.58 855.55-3.46L855.55-3.46L855.55-3.46Q854.91-1.28 852.58 0L852.58 0L852.58 0Q850.24 1.28 847.62 1.28L847.62 1.28L847.62 1.28Q844.99 1.28 843.23 0.29L843.23 0.29L843.23 0.29Q841.47-0.70 840.96-2.37L840.96-2.37L840.96-2.37Q839.94-0.77 837.76 0.26L837.76 0.26L837.76 0.26Q835.58 1.28 832.67 1.28L832.67 1.28L832.67 1.28Q829.76 1.28 827.39 0.51L827.39 0.51L827.39 0.51Q825.02-0.26 823.52-1.92ZM837.02-27.90L837.02-27.90L837.02-27.90Q836.29-26.75 835.65-24.80L835.65-24.80L835.65-24.80Q835.01-22.85 833.95-17.63L833.95-17.63L833.95-17.63Q832.90-12.42 832.90-8.70L832.90-8.70L832.90-8.70Q832.90-4.99 833.47-3.90L833.47-3.90L833.47-3.90Q834.05-2.82 835.07-2.82L835.07-2.82L835.07-2.82Q837.12-2.82 838.62-4.77L838.62-4.77L838.62-4.77Q840.13-6.72 840.70-10.18L840.70-10.18L844.10-28.93L844.10-28.93Q842.75-30.08 841.18-30.08L841.18-30.08L841.18-30.08Q839.62-30.08 838.69-29.57L838.69-29.57L838.69-29.57Q837.76-29.06 837.02-27.90ZM880.83-33.92L880.83-33.92L880.83-33.92Q883.14-33.92 884.93-33.41L884.93-33.41L884.93-33.41Q884.99-33.66 885.12-34.37L885.12-34.37L885.44-36.35L885.44-36.35Q885.70-37.63 886.08-39.74L886.08-39.74L887.10-44.80L899.84-46.08L892.74-8.96L892.74-8.96Q892.67-8.58 892.67-7.94L892.67-7.94L892.67-6.91L892.67-6.91Q892.67-5.50 893.38-4.45L893.38-4.45L893.38-4.45Q894.08-3.39 895.23-3.39L895.23-3.39L895.23-3.39Q893.95-0.38 890.05 0.90L890.05 0.90L890.05 0.90Q888.70 1.28 886.82 1.28L886.82 1.28L886.82 1.28Q884.93 1.28 883.20 0.29L883.20 0.29L883.20 0.29Q881.47-0.70 880.96-2.37L880.96-2.37L880.96-2.37Q879.94-0.70 877.89 0.29L877.89 0.29L877.89 0.29Q875.84 1.28 872.86 1.28L872.86 1.28L872.86 1.28Q869.89 1.28 867.42 0.51L867.42 0.51L867.42 0.51Q864.96-0.26 863.42-1.92L863.42-1.92L863.42-1.92Q860.61-5.18 860.61-12.61L860.61-12.61L860.61-12.61Q860.61-22.21 866.24-28.03L866.24-28.03L866.24-28.03Q871.87-33.92 880.83-33.92ZM880.38-30.08L880.38-30.08L880.38-30.08Q878.02-30.08 876.74-27.52L876.74-27.52L876.74-27.52Q875.46-24.96 874.14-18.62L874.14-18.62L874.14-18.62Q872.83-12.29 872.83-6.59L872.83-6.59L872.83-6.59Q872.83-2.69 875.14-2.69L875.14-2.69L875.14-2.69Q877.18-2.69 878.62-4.74L878.62-4.74L878.62-4.74Q880.06-6.78 880.64-10.18L880.64-10.18L884.10-28.93L884.10-28.93Q882.75-30.08 880.38-30.08ZM903.04-10.37L903.04-10.37L903.04-10.37Q900.99-11.84 900.99-14.66L900.99-14.66L900.99-14.66Q900.99-16.19 901.76-17.44L901.76-17.44L901.76-17.44Q902.53-18.69 904.06-18.88L904.06-18.88L916.67-18.88L916.67-18.88Q918.78-18.88 919.42-20.16L919.42-20.16L919.42-20.16Q920.45-19.58 920.90-18.37L920.90-18.37L920.90-18.37Q921.34-17.15 921.34-15.87L921.34-15.87L921.34-15.87Q921.34-14.59 920.35-13.34L920.35-13.34L920.35-13.34Q919.36-12.10 917.89-11.97L917.89-11.97L906.18-11.97L906.18-11.97Q904.83-11.97 904.19-11.55L904.19-11.55L904.19-11.55Q903.55-11.14 903.04-10.37ZM946.11-7.23L946.11-7.23L946.11-7.23Q942.78-3.78 936.70-3.78L936.70-3.78L936.70-3.78Q929.09-3.78 927.49-9.34L927.49-9.34L927.49-9.34Q926.98-11.01 926.98-12.86L926.98-12.86L926.98-12.86Q926.98-14.72 927.36-16.64L927.36-16.64L930.37-32.64L943.36-33.92L939.84-15.30L939.84-15.30Q939.71-14.46 939.52-13.57L939.52-13.57L939.52-13.57Q939.33-12.67 939.33-11.74L939.33-11.74L939.33-11.74Q939.33-10.82 939.65-10.21L939.65-10.21L939.65-10.21Q939.97-9.60 940.42-9.22L940.42-9.22L940.42-9.22Q941.18-8.70 942.56-8.70L942.56-8.70L942.56-8.70Q943.94-8.70 945.12-10.37L945.12-10.37L945.12-10.37Q946.30-12.03 946.88-14.91L946.88-14.91L950.40-32.64L963.01-33.92L958.21-8.77L958.21-8.77Q955.84 3.52 950.98 8.38L950.98 8.38L950.98 8.38Q948.48 10.88 945.25 11.87L945.25 11.87L945.25 11.87Q942.02 12.86 937.86 12.86L937.86 12.86L937.86 12.86Q931.14 12.86 927.30 10.75L927.30 10.75L927.30 10.75Q923.46 8.64 923.46 5.12L923.46 5.12L923.46 5.12Q923.46 2.50 925.44 0.99L925.44 0.99L925.44 0.99Q927.42-0.51 930.50-0.51L930.50-0.51L930.50-0.51Q933.18-0.51 935.23 0.64L935.23 0.64L935.23 0.64Q936.45 1.34 937.02 2.24L937.02 2.24L937.02 2.24Q935.55 3.52 935.55 5.63L935.55 5.63L935.55 5.63Q935.55 8.45 938.11 8.45L938.11 8.45L938.11 8.45Q942.34 8.45 944.77-1.28L944.77-1.28L944.77-1.28Q945.47-4.16 946.11-7.23ZM966.34-6.40L966.34-6.40L966.34-6.40Q966.34-8.13 967.23-12.48L967.23-12.48L970.62-29.76L966.85-29.76L967.10-31.68L967.10-31.68Q974.78-33.98 982.21-39.62L982.21-39.62L985.28-39.62L983.74-32.64L988.74-32.64L988.16-29.76L983.23-29.76L979.97-12.48L979.97-12.48Q979.14-8.51 979.14-7.17L979.14-7.17L979.14-7.17Q979.14-4.10 981.82-3.46L981.82-3.46L981.82-3.46Q981.18-1.28 978.88 0L978.88 0L978.88 0Q976.58 1.28 973.31 1.28L973.31 1.28L973.31 1.28Q970.05 1.28 968.19-0.77L968.19-0.77L968.19-0.77Q966.34-2.82 966.34-6.40Z" fill="url(#editing-glowing-gradient)"></path></g></g><style>text {
  font-size: 64px;
  font-family: Arial Black;
  dominant-baseline: central;
  text-anchor: middle;
}</style><style class="darkreader darkreader--sync" media="screen"></style></svg>